<?xml version="1.0" encoding="utf-8"?>
<svg version="1.1" id="Layer_1" xmlns="http://www.w3.org/2000/svg" xmlns:xlink="http://www.w3.org/1999/xlink" x="0px" y="0px"
	 viewBox="0 0 512 512" style="enable-background:new 0 0 512 512;" xml:space="preserve">
<style type="text/css">
	.st2{fill:#F04D35;}
</style>
<g>
  <path class="st2" d="M200.33,202.33c-6.01,6.01-15.78,6.01-21.92-0.13c-6.01-6.01-6.01-15.78,0-21.79s15.78-6.01,21.79,0
    C206.34,186.55,206.34,196.32,200.33,202.33z"/>
  <path class="st2" d="M267.45,268.46c-6.01,6.01-15.78,6.01-21.79,0c-5.39-5.39-6.01-13.53-2.13-19.41c0.63-0.88,1.25-1.75,2-2.5
    c0.75-0.75,1.63-1.38,2.5-2.01c5.89-3.88,14.03-3.26,19.41,2.13C273.47,252.68,273.47,262.45,267.45,268.46z"/>
  <path class="st2" d="M335.96,199.45c-0.63,0.88-1.25,1.75-2,2.5c-0.75,0.75-1.63,1.38-2.51,2c-5.89,3.88-14.03,3.26-19.41-2.13
    c-6.01-6.01-6.01-15.78,0-21.79c6.01-6.01,15.78-6.01,21.79,0C339.22,185.42,339.84,193.56,335.96,199.45z"/>
  <path class="st2" d="M400.21,244.91c-6.01-6.01-15.78-6.01-21.92,0.13c-6.01,6.01-6.01,15.78,0,21.79
    c6.01,6.01,15.78,6.01,21.79,0C406.22,260.69,406.22,250.92,400.21,244.91z M397.45,285.49c-10.27,3.01-21.92,0.38-30.06-7.77
    c-12.02-12.02-12.02-31.56,0-43.58c12.15-12.15,31.69-12.15,43.71-0.13c7.76,7.76,10.39,18.66,8.14,28.68l62.12,62.12
    c36.19-40.2,34.82-101.94-3.88-140.64L328.45,35.14c-40.08-40.08-104.82-40.2-144.9-0.13L34.38,184.17
    c-39.2,39.2-39.95,102.57-1.88,142.65l127.24-127.24c-3.01-10.27-0.38-21.92,7.76-30.06c12.02-12.02,31.56-12.02,43.58,0
    c12.15,12.15,12.15,31.69,0.13,43.71c-7.76,7.76-18.66,10.39-28.68,8.14L54.67,349.24l128.87,128.87
    c40.08,40.08,104.95,40.08,144.9,0.13l130.87-130.87L397.45,285.49z M278.35,279.35c-7.76,7.76-18.79,10.52-28.68,8.14
    c-5.39-1.13-10.65-3.88-14.9-8.14c-3.88-3.88-6.64-8.64-7.77-13.78c-3.13-10.14-0.5-21.79,7.64-29.93
    c7.77-7.77,18.66-10.4,28.68-8.14L293,197.82c-2.38-9.89,0.38-20.91,8.14-28.68c7.76-7.76,18.79-10.52,28.68-8.14
    c5.38,1.13,10.65,3.88,14.9,8.14c3.88,3.88,6.64,8.64,7.76,13.78c3.13,10.15,0.5,21.79-7.64,29.93
    c-7.77,7.77-18.66,10.4-28.68,8.14l-29.68,29.68C288.87,260.57,286.11,271.59,278.35,279.35z"/>
</g>
</svg>
